<svg width="35" height="35" viewBox="0 0 35 35" fill="none" xmlns="http://www.w3.org/2000/svg">
<path d="M11.8284 11.3138C10.2663 9.75168 10.2663 7.21902 11.8284 5.65692C14.9526 2.53273 20.0179 2.53273 23.1421 5.65692C24.7042 7.21899 24.7042 9.75171 23.1421 11.3138L17.4853 16.9706L11.8284 11.3138Z" fill="url(#paint0_linear_105_1867)"/>
<path d="M23.1423 23.6569C24.7044 25.219 24.7044 27.7517 23.1423 29.3138C20.0181 32.438 14.9528 32.438 11.8286 29.3138C10.2665 27.7517 10.2665 25.219 11.8286 23.6569L17.4854 18.0001L23.1423 23.6569Z" fill="url(#paint1_linear_105_1867)"/>
<path d="M23.596 11.7492C25.1416 10.1707 27.6741 10.144 29.2526 11.6896C32.4095 14.7807 32.4628 19.8458 29.3717 23.0027C27.8262 24.5811 25.2936 24.6078 23.7152 23.0622L17.9991 17.4653L23.596 11.7492Z" fill="url(#paint2_linear_105_1867)"/>
<path d="M11.3727 23.2215C9.82715 24.8 7.29463 24.8267 5.71617 23.2811C2.55925 20.19 2.50593 15.1249 5.59706 11.968C7.14259 10.3896 9.67517 10.3629 11.2536 11.9085L16.9697 17.5054L11.3727 23.2215Z" fill="url(#paint3_linear_105_1867)"/>
<defs>
<linearGradient id="paint0_linear_105_1867" x1="13.2426" y1="4.24271" x2="21.7279" y2="12.728" gradientUnits="userSpaceOnUse">
<stop stop-color="#F6F6F6"/>
<stop offset="1" stop-color="#B7D4DA"/>
</linearGradient>
<linearGradient id="paint1_linear_105_1867" x1="21.7281" y1="30.728" x2="13.2428" y2="22.2427" gradientUnits="userSpaceOnUse">
<stop stop-color="#DAE6E6"/>
<stop offset="1" stop-color="#B8C6AD"/>
</linearGradient>
<linearGradient id="paint2_linear_105_1867" x1="30.6816" y1="13.0889" x2="22.2861" y2="21.663" gradientUnits="userSpaceOnUse">
<stop stop-color="#FA604D"/>
<stop offset="1" stop-color="#F37E58"/>
</linearGradient>
<linearGradient id="paint3_linear_105_1867" x1="4.28715" y1="21.8819" x2="12.6826" y2="13.3077" gradientUnits="userSpaceOnUse">
<stop stop-color="#F9EDD3"/>
<stop offset="1" stop-color="#EAD197"/>
</linearGradient>
</defs>
</svg>
