<svg width="19" height="18" viewBox="0 0 19 18" fill="none" xmlns="http://www.w3.org/2000/svg">
<path d="M10.1949 2.25018C6.3774 2.14518 3.2499 5.21268 3.2499 9.00018H1.9074C1.5699 9.00018 1.4049 9.40518 1.6449 9.63768L3.7374 11.7377C3.8874 11.8877 4.1199 11.8877 4.2699 11.7377L6.3624 9.63768C6.41423 9.58481 6.44924 9.51777 6.46304 9.44503C6.47683 9.37229 6.46878 9.2971 6.43991 9.22892C6.41104 9.16075 6.36263 9.10265 6.30079 9.06194C6.23894 9.02123 6.16644 8.99974 6.0924 9.00018H4.7499C4.7499 6.07518 7.1349 3.71268 10.0749 3.75018C12.8649 3.78768 15.2124 6.13518 15.2499 8.92518C15.2874 11.8577 12.9249 14.2502 9.9999 14.2502C8.7924 14.2502 7.6749 13.8377 6.7899 13.1402C6.64625 13.027 6.46601 12.9706 6.28348 12.9817C6.10094 12.9927 5.92883 13.0705 5.7999 13.2002C5.4849 13.5152 5.5074 14.0477 5.8599 14.3177C7.0383 15.2494 8.49765 15.7544 9.9999 15.7502C13.7874 15.7502 16.8549 12.6227 16.7499 8.80518C16.6524 5.28768 13.7124 2.34768 10.1949 2.25018ZM9.8124 6.00018C9.5049 6.00018 9.2499 6.25518 9.2499 6.56268V9.32268C9.2499 9.58518 9.3924 9.83268 9.6174 9.96768L11.9574 11.3552C12.2274 11.5127 12.5724 11.4227 12.7299 11.1602C12.8874 10.8902 12.7974 10.5452 12.5349 10.3877L10.3749 9.10518V6.55518C10.3749 6.25518 10.1199 6.00018 9.8124 6.00018Z" fill="black"/>
</svg>
