<svg width="19" height="18" viewBox="0 0 19 18" fill="none" xmlns="http://www.w3.org/2000/svg">
<path d="M14.625 13.35V11.625C14.625 11.525 14.5875 11.4375 14.5125 11.3625C14.4375 11.2875 14.35 11.25 14.25 11.25C14.15 11.25 14.0625 11.2875 13.9875 11.3625C13.9125 11.4375 13.875 11.525 13.875 11.625V13.35C13.875 13.45 13.8938 13.5437 13.9313 13.6312C13.9688 13.7187 14.025 13.8 14.1 13.875L15.2438 15.0187C15.3188 15.0938 15.4062 15.1312 15.5062 15.1312C15.6062 15.1312 15.6937 15.0938 15.7687 15.0187C15.8438 14.9437 15.8812 14.8562 15.8812 14.7562C15.8812 14.6562 15.8438 14.5688 15.7687 14.4938L14.625 13.35ZM4.5 15.75C4.0875 15.75 3.7345 15.6033 3.441 15.3097C3.1475 15.0162 3.0005 14.663 3 14.25V3.75C3 3.3375 3.147 2.9845 3.441 2.691C3.735 2.3975 4.088 2.2505 4.5 2.25H15C15.4125 2.25 15.7657 2.397 16.0597 2.691C16.3538 2.985 16.5005 3.338 16.5 3.75V7.5C16.5 7.7125 16.428 7.89075 16.284 8.03475C16.14 8.17875 15.962 8.2505 15.75 8.25C15.538 8.2495 15.36 8.1775 15.216 8.034C15.072 7.8905 15 7.7125 15 7.5V3.75H4.5V14.25H8.25C8.4625 14.25 8.64075 14.322 8.78475 14.466C8.92875 14.61 9.0005 14.788 9 15C8.9995 15.212 8.9275 15.3902 8.784 15.5347C8.6405 15.6792 8.4625 15.751 8.25 15.75H4.5ZM4.5 13.5V14.25V3.75V8.30625V8.25V13.5ZM6 12C6 12.2125 6.072 12.3907 6.216 12.5347C6.36 12.6787 6.538 12.7505 6.75 12.75H8.30625C8.51875 12.75 8.697 12.678 8.841 12.534C8.985 12.39 9.05675 12.212 9.05625 12C9.05575 11.788 8.984 11.61 8.841 11.466C8.698 11.322 8.51975 11.25 8.30625 11.25H6.75C6.5375 11.25 6.3595 11.322 6.216 11.466C6.0725 11.61 6.0005 11.788 6 12ZM6 9C6 9.2125 6.072 9.39075 6.216 9.53475C6.36 9.67875 6.538 9.7505 6.75 9.75H10.5C10.7125 9.75 10.8908 9.678 11.0347 9.534C11.1788 9.39 11.2505 9.212 11.25 9C11.2495 8.788 11.1775 8.61 11.034 8.466C10.8905 8.322 10.7125 8.25 10.5 8.25H6.75C6.5375 8.25 6.3595 8.322 6.216 8.466C6.0725 8.61 6.0005 8.788 6 9ZM6 6C6 6.2125 6.072 6.39075 6.216 6.53475C6.36 6.67875 6.538 6.7505 6.75 6.75H12.75C12.9625 6.75 13.1407 6.678 13.2847 6.534C13.4287 6.39 13.5005 6.212 13.5 6C13.4995 5.788 13.4275 5.61 13.284 5.466C13.1405 5.322 12.9625 5.25 12.75 5.25H6.75C6.5375 5.25 6.3595 5.322 6.216 5.466C6.0725 5.61 6.0005 5.788 6 6ZM14.25 17.25C13.2125 17.25 12.3282 16.8843 11.5972 16.1528C10.8663 15.4213 10.5005 14.537 10.5 13.5C10.4995 12.463 10.8653 11.5788 11.5972 10.8472C12.3293 10.1158 13.2135 9.75 14.25 9.75C15.2865 9.75 16.171 10.1158 16.9035 10.8472C17.636 11.5788 18.0015 12.463 18 13.5C17.9985 14.537 17.6328 15.4215 16.9028 16.1535C16.1728 16.8855 15.2885 17.251 14.25 17.25Z" fill="black"/>
</svg>
