<svg width="35" height="35" viewBox="0 0 35 35" fill="none" xmlns="http://www.w3.org/2000/svg">
<path d="M11.8284 11.3138C10.2663 9.75168 10.2663 7.21902 11.8284 5.65692C14.9526 2.53273 20.0179 2.53273 23.1421 5.65692C24.7042 7.21899 24.7042 9.75171 23.1421 11.3138L17.4853 16.9706L11.8284 11.3138Z" fill="white" fill-opacity="0.3"/>
<path d="M23.1423 23.6569C24.7044 25.219 24.7044 27.7517 23.1423 29.3138C20.0181 32.438 14.9528 32.438 11.8286 29.3138C10.2665 27.7517 10.2665 25.219 11.8286 23.6569L17.4854 18.0001L23.1423 23.6569Z" fill="white" fill-opacity="0.3"/>
<path d="M23.596 11.7492C25.1416 10.1707 27.6741 10.144 29.2526 11.6896C32.4095 14.7807 32.4628 19.8458 29.3717 23.0027C27.8262 24.5811 25.2936 24.6078 23.7152 23.0622L17.9991 17.4653L23.596 11.7492Z" fill="white" fill-opacity="0.3"/>
<path d="M11.3727 23.2215C9.82715 24.8 7.29463 24.8267 5.71617 23.2811C2.55925 20.19 2.50593 15.1249 5.59706 11.968C7.14259 10.3896 9.67517 10.3629 11.2536 11.9085L16.9697 17.5054L11.3727 23.2215Z" fill="white" fill-opacity="0.3"/>
</svg>
