<svg width="19" height="18" viewBox="0 0 19 18" fill="none" xmlns="http://www.w3.org/2000/svg">
<path d="M15.4252 9.49504C15.3049 9.35818 15.2386 9.18222 15.2386 9.00004C15.2386 8.81786 15.3049 8.64191 15.4252 8.50504L16.3852 7.42504C16.491 7.30704 16.5566 7.15857 16.5728 7.00092C16.589 6.84328 16.5548 6.68456 16.4752 6.54754L14.9752 3.95254C14.8963 3.81568 14.7763 3.7072 14.6322 3.64256C14.4881 3.57791 14.3273 3.56041 14.1727 3.59254L12.7627 3.87754C12.5833 3.91461 12.3965 3.88474 12.2376 3.79354C12.0787 3.70235 11.9587 3.55616 11.9002 3.38254L11.4427 2.01004C11.3924 1.86108 11.2965 1.73169 11.1686 1.64017C11.0408 1.54866 10.8874 1.49964 10.7302 1.50004H7.73017C7.56662 1.49151 7.40477 1.53674 7.26934 1.62883C7.13391 1.72092 7.03235 1.85481 6.98017 2.01004L6.56017 3.38254C6.50167 3.55616 6.38165 3.70235 6.22275 3.79354C6.06386 3.88474 5.87708 3.91461 5.69767 3.87754L4.25017 3.59254C4.10358 3.57183 3.95414 3.59496 3.82068 3.65902C3.68721 3.72309 3.57569 3.82521 3.50017 3.95254L2.00017 6.54754C1.91854 6.68303 1.88183 6.84086 1.8953 6.99846C1.90877 7.15606 1.97173 7.30537 2.07517 7.42504L3.02767 8.50504C3.14791 8.64191 3.21422 8.81786 3.21422 9.00004C3.21422 9.18222 3.14791 9.35818 3.02767 9.49504L2.07517 10.575C1.97173 10.6947 1.90877 10.844 1.8953 11.0016C1.88183 11.1592 1.91854 11.3171 2.00017 11.4525L3.50017 14.0475C3.57899 14.1844 3.69901 14.2929 3.84311 14.3575C3.98721 14.4222 4.14803 14.4397 4.30267 14.4075L5.71267 14.1225C5.89208 14.0855 6.07886 14.1154 6.23775 14.2065C6.39665 14.2977 6.51667 14.4439 6.57517 14.6175L7.03267 15.99C7.08485 16.1453 7.18641 16.2792 7.32184 16.3713C7.45727 16.4633 7.61912 16.5086 7.78267 16.5H10.7827C10.9399 16.5004 11.0933 16.4514 11.2211 16.3599C11.349 16.2684 11.4449 16.139 11.4952 15.99L11.9527 14.6175C12.0112 14.4439 12.1312 14.2977 12.2901 14.2065C12.449 14.1154 12.6358 14.0855 12.8152 14.1225L14.2252 14.4075C14.3798 14.4397 14.5406 14.4222 14.6847 14.3575C14.8288 14.2929 14.9488 14.1844 15.0277 14.0475L16.5277 11.4525C16.6073 11.3155 16.6415 11.1568 16.6253 10.9992C16.6091 10.8415 16.5435 10.693 16.4377 10.575L15.4252 9.49504ZM14.3077 10.5L14.9077 11.175L13.9477 12.84L13.0627 12.66C12.5225 12.5496 11.9606 12.6414 11.4836 12.9179C11.0066 13.1944 10.6478 13.6364 10.4752 14.16L10.1902 15H8.27017L8.00017 14.145C7.82756 13.6214 7.4687 13.1794 6.99172 12.9029C6.51474 12.6264 5.95283 12.5346 5.41267 12.645L4.52767 12.825L3.55267 11.1675L4.15267 10.4925C4.52163 10.08 4.72562 9.54599 4.72562 8.99254C4.72562 8.43909 4.52163 7.90506 4.15267 7.49254L3.55267 6.81754L4.51267 5.16754L5.39767 5.34754C5.93783 5.45796 6.49974 5.3662 6.97672 5.08969C7.4537 4.81318 7.81256 4.37116 7.98517 3.84754L8.27017 3.00004H10.1902L10.4752 3.85504C10.6478 4.37866 11.0066 4.82068 11.4836 5.09719C11.9606 5.3737 12.5225 5.46546 13.0627 5.35504L13.9477 5.17504L14.9077 6.84004L14.3077 7.51504C13.9428 7.92661 13.7414 8.45755 13.7414 9.00754C13.7414 9.55753 13.9428 10.0885 14.3077 10.5ZM9.23017 6.00004C8.63682 6.00004 8.0568 6.17599 7.56346 6.50563C7.07011 6.83528 6.68559 7.30381 6.45853 7.85199C6.23146 8.40017 6.17205 9.00337 6.28781 9.58531C6.40357 10.1673 6.68929 10.7018 7.10885 11.1214C7.5284 11.5409 8.06295 11.8266 8.6449 11.9424C9.22684 12.0582 9.83004 11.9987 10.3782 11.7717C10.9264 11.5446 11.3949 11.1601 11.7246 10.6668C12.0542 10.1734 12.2302 9.59339 12.2302 9.00004C12.2302 8.20439 11.9141 7.44133 11.3515 6.87872C10.7889 6.31611 10.0258 6.00004 9.23017 6.00004ZM9.23017 10.5C8.93349 10.5 8.64348 10.4121 8.39681 10.2472C8.15014 10.0824 7.95788 9.84816 7.84435 9.57407C7.73082 9.29998 7.70111 8.99838 7.75899 8.70741C7.81687 8.41644 7.95973 8.14916 8.16951 7.93938C8.37928 7.7296 8.64656 7.58674 8.93753 7.52887C9.2285 7.47099 9.5301 7.50069 9.80419 7.61422C10.0783 7.72776 10.3125 7.92001 10.4774 8.16669C10.6422 8.41336 10.7302 8.70337 10.7302 9.00004C10.7302 9.39787 10.5721 9.7794 10.2908 10.0607C10.0095 10.342 9.62799 10.5 9.23017 10.5Z" fill="black"/>
</svg>
